<svg xmlns="http://www.w3.org/2000/svg" viewBox="0 0 512 512" width="100%" height="100%">
  <defs>
    <linearGradient id="bgGrad" x1="0%" y1="0%" x2="100%" y2="100%">
      <stop offset="0%" stop-color="#4F46E5" />
      <stop offset="100%" stop-color="#7C3AED" />
    </linearGradient>
    <linearGradient id="foldGrad" x1="0%" y1="0%" x2="100%" y2="100%">
      <stop offset="0%" stop-color="#C4B5FD" />
      <stop offset="100%" stop-color="#8B5CF6" />
    </linearGradient>
  </defs>
  
  <path d="M112 80 C112 53.5 133.5 32 160 32 L304 32 L400 128 L400 432 C400 458.5 378.5 480 352 480 L160 480 C133.5 480 112 458.5 112 432 Z" fill="url(#bgGrad)" />
  
  <path d="M304 32 L304 112 C304 120.8 311.2 128 320 128 L400 128 Z" fill="url(#foldGrad)" opacity="0.9" />
  
  <g stroke="#ffffff" stroke-width="24" stroke-linecap="round" stroke-linejoin="round">
    <line x1="192" y1="176" x2="192" y2="352" />
    <line x1="192" y1="176" x2="320" y2="352" />
    <line x1="320" y1="352" x2="320" y2="176" />
  </g>
  
  <g fill="#ffffff">
    <circle cx="192" cy="176" r="28" />
    <circle cx="192" cy="352" r="28" />
    <circle cx="320" cy="176" r="28" />
    <circle cx="320" cy="352" r="28" />
  </g>
  
  <circle cx="192" cy="176" r="10" fill="#4F46E5" />
  <circle cx="192" cy="352" r="10" fill="#6366F1" />
  <circle cx="320" cy="176" r="10" fill="#8B5CF6" />
  <circle cx="320" cy="352" r="10" fill="#7C3AED" />
</svg>
